<svg 
height="60" viewBox="0 0 124 60" fill="none" xmlns="http://www.w3.org/2000/svg">
<g clip-path="url(#clip0_2048_1070)">
<path d="M8.95971 0.0250124C6.16796 0.0804663 -0.380553 1.19733 0.017355 10.696C0.415755 20.1947 0.017355 38.6968 0.017355 38.6968L8.95971 29.868V9.65988C8.95971 9.27608 9.27449 8.96476 9.66256 8.96476H20.4272V19.448C20.4272 19.861 20.0898 20.1971 19.6722 20.1995L11.7706 20.2501V29.1451L21.1743 29.1154C25.7112 29.1013 29.3814 25.4599 29.3814 20.973V0.0250124C29.3814 0.0250124 11.7519 -0.0304415 8.95971 0.0250124Z" fill="#3B77F0"/>
</g>
<path d="M36.6179 13.5234C36.2826 13.5234 35.9988 13.4073 35.7666 13.1752C35.5344 12.943 35.4183 12.6592 35.4183 12.3238C35.4183 11.9885 35.5344 11.7047 35.7666 11.4725C35.9988 11.2403 36.2826 11.1242 36.6179 11.1242C36.9404 11.1242 37.2113 11.2403 37.4306 11.4725C37.6627 11.7047 37.7788 11.9885 37.7788 12.3238C37.7788 12.6592 37.6627 12.943 37.4306 13.1752C37.2113 13.4073 36.9404 13.5234 36.6179 13.5234ZM37.4693 15.2454V25.8483H35.7086V15.2454H37.4693ZM39.8122 20.5275C39.8122 19.4311 40.0315 18.4766 40.4701 17.664C40.9086 16.8384 41.5149 16.1999 42.2888 15.7485C43.0756 15.297 43.9721 15.0713 44.9782 15.0713C46.281 15.0713 47.3516 15.3873 48.19 16.0194C49.0414 16.6514 49.6025 17.5285 49.8733 18.6507H47.9772C47.7966 18.0058 47.4419 17.4963 46.913 17.1222C46.3971 16.7481 45.7522 16.5611 44.9782 16.5611C43.9721 16.5611 43.1595 16.9094 42.5403 17.6059C41.9212 18.2896 41.6116 19.2634 41.6116 20.5275C41.6116 21.8045 41.9212 22.7913 42.5403 23.4878C43.1595 24.1843 43.9721 24.5326 44.9782 24.5326C45.7522 24.5326 46.3971 24.352 46.913 23.9909C47.429 23.6297 47.7837 23.1137 47.9772 22.443H49.8733C49.5896 23.5265 49.022 24.3972 48.1707 25.055C47.3194 25.7 46.2552 26.0224 44.9782 26.0224C43.9721 26.0224 43.0756 25.7967 42.2888 25.3452C41.5149 24.8938 40.9086 24.2553 40.4701 23.4298C40.0315 22.6042 39.8122 21.6368 39.8122 20.5275ZM58.1432 25.8483L53.9833 21.166V25.8483H52.2226V11.5306H53.9833V19.9471L58.0658 15.2454H60.5231L55.5312 20.5275L60.5424 25.8483H58.1432ZM71.5835 15.2454V25.8483H69.8228V24.2811C69.4874 24.8228 69.0166 25.2485 68.4104 25.5581C67.817 25.8547 67.1592 26.0031 66.4368 26.0031C65.6113 26.0031 64.8696 25.8354 64.2118 25.5C63.5539 25.1518 63.0315 24.6358 62.6446 23.9522C62.2705 23.2685 62.0835 22.4365 62.0835 21.4562V15.2454H63.8248V21.2241C63.8248 22.2689 64.0892 23.075 64.6181 23.6426C65.147 24.1972 65.8693 24.4746 66.7851 24.4746C67.7267 24.4746 68.4684 24.1843 69.0102 23.6039C69.5519 23.0234 69.8228 22.1786 69.8228 21.0693V15.2454H71.5835ZM76.317 17.1996C76.6653 16.5934 77.1812 16.0903 77.8649 15.6904C78.5614 15.2777 79.3676 15.0713 80.2834 15.0713C81.225 15.0713 82.0764 15.297 82.8374 15.7485C83.6113 16.1999 84.2176 16.8384 84.6561 17.664C85.0947 18.4766 85.314 19.4247 85.314 20.5082C85.314 21.5788 85.0947 22.5333 84.6561 23.3717C84.2176 24.2101 83.6113 24.8615 82.8374 25.3259C82.0764 25.7903 81.225 26.0224 80.2834 26.0224C79.3805 26.0224 78.5808 25.8225 77.8842 25.4226C77.2006 25.0099 76.6782 24.5004 76.317 23.8941V30.8789H74.5563V15.2454H76.317V17.1996ZM83.5146 20.5082C83.5146 19.7084 83.3534 19.0119 83.0309 18.4186C82.7084 17.8252 82.2698 17.3737 81.7152 17.0642C81.1734 16.7546 80.5736 16.5998 79.9158 16.5998C79.2709 16.5998 78.6711 16.761 78.1164 17.0835C77.5747 17.3931 77.1361 17.851 76.8007 18.4572C76.4783 19.0506 76.317 19.7407 76.317 20.5275C76.317 21.3272 76.4783 22.0302 76.8007 22.6365C77.1361 23.2298 77.5747 23.6877 78.1164 24.0102C78.6711 24.3198 79.2709 24.4746 79.9158 24.4746C80.5736 24.4746 81.1734 24.3198 81.7152 24.0102C82.2698 23.6877 82.7084 23.2298 83.0309 22.6365C83.3534 22.0302 83.5146 21.3208 83.5146 20.5082ZM89.3922 17.219C89.7534 16.5869 90.2823 16.071 90.9788 15.6711C91.6753 15.2712 92.4686 15.0713 93.3586 15.0713C94.3132 15.0713 95.1709 15.297 95.932 15.7485C96.693 16.1999 97.2928 16.8384 97.7314 17.664C98.1699 18.4766 98.3892 19.4247 98.3892 20.5082C98.3892 21.5788 98.1699 22.5333 97.7314 23.3717C97.2928 24.2101 96.6865 24.8615 95.9126 25.3259C95.1516 25.7903 94.3003 26.0224 93.3586 26.0224C92.4428 26.0224 91.6366 25.8225 90.9401 25.4226C90.2565 25.0228 89.7405 24.5133 89.3922 23.8941V25.8483H87.6315V11.5306H89.3922V17.219ZM96.5898 20.5082C96.5898 19.7084 96.4286 19.0119 96.1061 18.4186C95.7836 17.8252 95.3451 17.3737 94.7904 17.0642C94.2487 16.7546 93.6489 16.5998 92.991 16.5998C92.3461 16.5998 91.7463 16.761 91.1916 17.0835C90.6499 17.3931 90.2113 17.851 89.8759 18.4572C89.5535 19.0506 89.3922 19.7407 89.3922 20.5275C89.3922 21.3272 89.5535 22.0302 89.8759 22.6365C90.2113 23.2298 90.6499 23.6877 91.1916 24.0102C91.7463 24.3198 92.3461 24.4746 92.991 24.4746C93.6489 24.4746 94.2487 24.3198 94.7904 24.0102C95.3451 23.6877 95.7836 23.2298 96.1061 22.6365C96.4286 22.0302 96.5898 21.3208 96.5898 20.5082ZM100.049 20.5082C100.049 19.4247 100.268 18.4766 100.707 17.664C101.145 16.8384 101.745 16.1999 102.506 15.7485C103.28 15.297 104.138 15.0713 105.079 15.0713C106.008 15.0713 106.814 15.2712 107.498 15.6711C108.182 16.071 108.691 16.574 109.027 17.1803V15.2454H110.807V25.8483H109.027V23.8748C108.678 24.4939 108.156 25.0099 107.459 25.4226C106.776 25.8225 105.976 26.0224 105.06 26.0224C104.119 26.0224 103.267 25.7903 102.506 25.3259C101.745 24.8615 101.145 24.2101 100.707 23.3717C100.268 22.5333 100.049 21.5788 100.049 20.5082ZM109.027 20.5275C109.027 19.7278 108.865 19.0312 108.543 18.4379C108.22 17.8446 107.782 17.3931 107.227 17.0835C106.685 16.761 106.086 16.5998 105.428 16.5998C104.77 16.5998 104.17 16.7546 103.628 17.0642C103.087 17.3737 102.654 17.8252 102.332 18.4186C102.01 19.0119 101.848 19.7084 101.848 20.5082C101.848 21.3208 102.01 22.0302 102.332 22.6365C102.654 23.2298 103.087 23.6877 103.628 24.0102C104.17 24.3198 104.77 24.4746 105.428 24.4746C106.086 24.4746 106.685 24.3198 107.227 24.0102C107.782 23.6877 108.22 23.2298 108.543 22.6365C108.865 22.0302 109.027 21.3272 109.027 20.5275ZM122.914 15.2454L116.529 30.8402H114.711L116.8 25.7322L112.524 15.2454H114.479L117.806 23.8361L121.096 15.2454H122.914Z" fill="#3B77F0"/>
<defs>
<clipPath id="clip0_2048_1070">
<rect width="29.3807" height="38.6966" fill="white"/>
</clipPath>
</defs>
</svg>
